<svg width="2191" height="298" viewBox="0 0 2191 298" fill="none" xmlns="http://www.w3.org/2000/svg">
<path d="M75.8 57.2C81.2667 57.2 85.7333 58.9 89.2 62.3C92.6667 65.7 94.4 69.9333 94.4 75C94.4 80.0667 92.6667 84.3333 89.2 87.8C85.7333 91.2 81.2667 92.9 75.8 92.9C70.2667 92.9 65.7333 91.2 62.2 87.8C58.7333 84.3333 57 80.0667 57 75C57 69.9333 58.7333 65.7 62.2 62.3C65.7333 58.9 70.2667 57.2 75.8 57.2ZM94.9 112.8V197.4H121.9V219H33.2V197.4H63.3V134.4H34.2V112.8H94.9ZM149.971 219V112.8H177.571L179.771 125.1C184.504 119.767 189.504 115.8 194.771 113.2C200.037 110.6 206.037 109.3 212.771 109.3C221.837 109.3 228.971 112.067 234.171 117.6C239.371 123.133 241.971 130.933 241.971 141V219H210.371V150.1C210.371 143.567 209.637 139.033 208.171 136.5C206.771 133.9 204.104 132.6 200.171 132.6C196.837 132.6 193.637 133.667 190.571 135.8C187.571 137.933 184.571 140.9 181.571 144.7V219H149.971ZM312.541 199.8C317.808 199.8 322.041 198.967 325.241 197.3C328.508 195.633 330.141 193.133 330.141 189.8C330.141 187.533 329.508 185.633 328.241 184.1C326.975 182.567 324.541 181.1 320.941 179.7C317.341 178.3 312.008 176.633 304.941 174.7C295.208 172.1 287.275 168.367 281.141 163.5C275.075 158.633 272.041 151.5 272.041 142.1C272.041 132.633 275.975 124.8 283.841 118.6C291.775 112.4 303.208 109.3 318.141 109.3C327.608 109.3 335.841 110.533 342.841 113C349.908 115.4 356.008 118.467 361.141 122.2L348.541 140.8C344.141 138.067 339.408 135.9 334.341 134.3C329.275 132.633 324.175 131.8 319.041 131.8C308.908 131.8 303.841 134.533 303.841 140C303.841 141.8 304.475 143.367 305.741 144.7C307.075 145.967 309.541 147.3 313.141 148.7C316.741 150.033 322.008 151.7 328.941 153.7C335.808 155.633 341.775 157.867 346.841 160.4C351.975 162.933 355.941 166.333 358.741 170.6C361.541 174.8 362.941 180.367 362.941 187.3C362.941 195.033 360.641 201.533 356.041 206.8C351.441 212 345.341 215.9 337.741 218.5C330.141 221.1 321.808 222.4 312.741 222.4C302.475 222.4 293.408 220.933 285.541 218C277.675 215.067 270.975 211.2 265.441 206.4L281.341 188.6C285.475 191.8 290.141 194.467 295.341 196.6C300.608 198.733 306.341 199.8 312.541 199.8ZM485.512 212.8C481.379 215.467 476.379 217.733 470.512 219.6C464.645 221.467 458.045 222.4 450.712 222.4C436.845 222.4 426.545 218.867 419.812 211.8C413.079 204.667 409.712 195 409.712 182.8V134.6H387.412V112.8H409.712V89.8L441.312 86V112.8H475.512L472.412 134.6H441.312V182.8C441.312 188.067 442.512 191.833 444.912 194.1C447.312 196.367 451.145 197.5 456.412 197.5C460.145 197.5 463.545 197.067 466.612 196.2C469.745 195.267 472.545 194.1 475.012 192.7L485.512 212.8ZM599.283 188.4C599.283 192.4 599.816 195.3 600.883 197.1C602.016 198.9 603.816 200.267 606.283 201.2L599.783 222C593.516 221.4 588.216 220.033 583.883 217.9C579.616 215.7 576.249 212.4 573.783 208C569.716 212.867 564.516 216.5 558.183 218.9C551.849 221.233 545.383 222.4 538.783 222.4C527.849 222.4 519.116 219.3 512.583 213.1C506.116 206.833 502.883 198.8 502.883 189C502.883 177.467 507.383 168.567 516.383 162.3C525.449 156.033 538.183 152.9 554.583 152.9H568.883V148.9C568.883 138.033 561.883 132.6 547.883 132.6C544.483 132.6 540.116 133.1 534.783 134.1C529.449 135.033 524.116 136.4 518.783 138.2L511.483 117.2C518.349 114.6 525.483 112.633 532.883 111.3C540.349 109.967 547.016 109.3 552.883 109.3C568.683 109.3 580.349 112.533 587.883 119C595.483 125.4 599.283 134.667 599.283 146.8V188.4ZM549.683 199.8C553.083 199.8 556.649 198.8 560.383 196.8C564.116 194.733 566.949 191.833 568.883 188.1V170.9H561.083C552.283 170.9 545.816 172.267 541.683 175C537.549 177.667 535.483 181.6 535.483 186.8C535.483 190.867 536.716 194.067 539.183 196.4C541.716 198.667 545.216 199.8 549.683 199.8ZM629.854 219V112.8H657.454L659.654 125.1C664.387 119.767 669.387 115.8 674.654 113.2C679.92 110.6 685.92 109.3 692.654 109.3C701.72 109.3 708.854 112.067 714.054 117.6C719.254 123.133 721.854 130.933 721.854 141V219H690.254V150.1C690.254 143.567 689.52 139.033 688.054 136.5C686.654 133.9 683.987 132.6 680.054 132.6C676.72 132.6 673.52 133.667 670.454 135.8C667.454 137.933 664.454 140.9 661.454 144.7V219H629.854ZM845.424 212.8C841.291 215.467 836.291 217.733 830.424 219.6C824.558 221.467 817.958 222.4 810.624 222.4C796.758 222.4 786.458 218.867 779.724 211.8C772.991 204.667 769.624 195 769.624 182.8V134.6H747.324V112.8H769.624V89.8L801.224 86V112.8H835.424L832.324 134.6H801.224V182.8C801.224 188.067 802.424 191.833 804.824 194.1C807.224 196.367 811.058 197.5 816.324 197.5C820.058 197.5 823.458 197.067 826.524 196.2C829.658 195.267 832.458 194.1 834.924 192.7L845.424 212.8ZM930.195 67.3L961.795 70.6V219H933.795L932.195 207.3C929.262 211.433 925.362 215 920.495 218C915.628 220.933 909.728 222.4 902.795 222.4C893.995 222.4 886.695 220.033 880.895 215.3C875.162 210.567 870.862 203.967 867.995 195.5C865.195 186.967 863.795 177 863.795 165.6C863.795 154.667 865.495 144.967 868.895 136.5C872.295 128.033 877.162 121.4 883.495 116.6C889.828 111.733 897.362 109.3 906.095 109.3C915.628 109.3 923.662 112.567 930.195 119.1V67.3ZM914.595 132.4C909.128 132.4 904.728 135 901.395 140.2C898.062 145.333 896.395 153.867 896.395 165.8C896.395 174.533 897.095 181.333 898.495 186.2C899.895 191 901.828 194.367 904.295 196.3C906.762 198.233 909.595 199.2 912.795 199.2C916.328 199.2 919.528 198.1 922.395 195.9C925.328 193.7 927.928 190.7 930.195 186.9V141.1C927.995 138.367 925.662 136.233 923.195 134.7C920.728 133.167 917.862 132.4 914.595 132.4ZM1021.37 123.7C1024.7 119.3 1028.7 115.8 1033.37 113.2C1038.1 110.6 1043.17 109.3 1048.57 109.3C1062.23 109.3 1072.17 114.367 1078.37 124.5C1084.63 134.633 1087.77 148.333 1087.77 165.6C1087.77 176.533 1086.13 186.3 1082.87 194.9C1079.67 203.433 1074.9 210.167 1068.57 215.1C1062.23 219.967 1054.47 222.4 1045.27 222.4C1034.13 222.4 1025.37 218.067 1018.97 209.4L1017.77 219H989.766V70.6L1021.37 67.3V123.7ZM1036.97 199.4C1042.57 199.4 1047 196.833 1050.27 191.7C1053.53 186.5 1055.17 177.933 1055.17 166C1055.17 157.2 1054.47 150.4 1053.07 145.6C1051.73 140.733 1049.8 137.367 1047.27 135.5C1044.8 133.567 1041.9 132.6 1038.57 132.6C1035.03 132.6 1031.87 133.7 1029.07 135.9C1026.27 138.1 1023.7 141.1 1021.37 144.9V189.7C1023.37 192.833 1025.6 195.233 1028.07 196.9C1030.53 198.567 1033.5 199.4 1036.97 199.4ZM1112.44 176.7V152.1H1199.04V176.7H1112.44ZM1230.71 219V197.8H1244.71V133.8H1230.71V112.8H1268.81L1274.61 136.7C1278.41 127.567 1283.24 120.767 1289.11 116.3C1295.04 111.833 1302.27 109.6 1310.81 109.6C1314.41 109.6 1317.61 109.9 1320.41 110.5C1323.21 111.033 1325.84 111.8 1328.31 112.8L1322.41 157.2H1302.61V137.6C1296.61 138.667 1291.34 141.933 1286.81 147.4C1282.27 152.8 1278.77 159.467 1276.31 167.4V197.8H1297.31V219H1230.71ZM1377.08 175.1C1378.14 183.767 1380.98 190 1385.58 193.8C1390.18 197.533 1395.84 199.4 1402.58 199.4C1407.44 199.4 1412.14 198.6 1416.68 197C1421.21 195.4 1425.58 193.267 1429.78 190.6L1442.48 207.8C1437.48 212.067 1431.41 215.567 1424.28 218.3C1417.21 221.033 1409.14 222.4 1400.08 222.4C1387.94 222.4 1377.78 220 1369.58 215.2C1361.38 210.333 1355.21 203.667 1351.08 195.2C1346.94 186.733 1344.88 177 1344.88 166C1344.88 155.533 1346.88 146.033 1350.88 137.5C1354.88 128.9 1360.71 122.067 1368.38 117C1376.11 111.867 1385.54 109.3 1396.68 109.3C1406.81 109.3 1415.58 111.467 1422.98 115.8C1430.44 120.133 1436.21 126.367 1440.28 134.5C1444.41 142.633 1446.48 152.4 1446.48 163.8C1446.48 165.6 1446.41 167.533 1446.28 169.6C1446.21 171.667 1446.08 173.5 1445.88 175.1H1377.08ZM1396.68 130.5C1391.01 130.5 1386.44 132.533 1382.98 136.6C1379.51 140.667 1377.41 147.167 1376.68 156.1H1415.68C1415.61 148.367 1414.11 142.167 1411.18 137.5C1408.24 132.833 1403.41 130.5 1396.68 130.5ZM1559.05 188.4C1559.05 192.4 1559.58 195.3 1560.65 197.1C1561.78 198.9 1563.58 200.267 1566.05 201.2L1559.55 222C1553.28 221.4 1547.98 220.033 1543.65 217.9C1539.38 215.7 1536.02 212.4 1533.55 208C1529.48 212.867 1524.28 216.5 1517.95 218.9C1511.62 221.233 1505.15 222.4 1498.55 222.4C1487.62 222.4 1478.88 219.3 1472.35 213.1C1465.88 206.833 1462.65 198.8 1462.65 189C1462.65 177.467 1467.15 168.567 1476.15 162.3C1485.22 156.033 1497.95 152.9 1514.35 152.9H1528.65V148.9C1528.65 138.033 1521.65 132.6 1507.65 132.6C1504.25 132.6 1499.88 133.1 1494.55 134.1C1489.22 135.033 1483.88 136.4 1478.55 138.2L1471.25 117.2C1478.12 114.6 1485.25 112.633 1492.65 111.3C1500.12 109.967 1506.78 109.3 1512.65 109.3C1528.45 109.3 1540.12 112.533 1547.65 119C1555.25 125.4 1559.05 134.667 1559.05 146.8V188.4ZM1509.45 199.8C1512.85 199.8 1516.42 198.8 1520.15 196.8C1523.88 194.733 1526.72 191.833 1528.65 188.1V170.9H1520.85C1512.05 170.9 1505.58 172.267 1501.45 175C1497.32 177.667 1495.25 181.6 1495.25 186.8C1495.25 190.867 1496.48 194.067 1498.95 196.4C1501.48 198.667 1504.98 199.8 1509.45 199.8ZM1645.92 197.5C1650.25 197.5 1654.32 196.667 1658.12 195C1661.99 193.267 1665.82 191.067 1669.62 188.4L1683.72 208.4C1679.05 212.4 1673.35 215.733 1666.62 218.4C1659.95 221.067 1652.49 222.4 1644.22 222.4C1632.82 222.4 1623.02 220.067 1614.82 215.4C1606.62 210.667 1600.32 204.133 1595.92 195.8C1591.52 187.4 1589.32 177.667 1589.32 166.6C1589.32 155.533 1591.55 145.7 1596.02 137.1C1600.55 128.433 1606.95 121.633 1615.22 116.7C1623.55 111.767 1633.42 109.3 1644.82 109.3C1652.89 109.3 1660.05 110.433 1666.32 112.7C1672.65 114.9 1678.45 118.2 1683.72 122.6L1670.02 141.6C1666.42 139.067 1662.62 137.1 1658.62 135.7C1654.62 134.3 1650.45 133.6 1646.12 133.6C1638.99 133.6 1633.22 136.133 1628.82 141.2C1624.49 146.2 1622.32 154.667 1622.32 166.6C1622.32 174.4 1623.35 180.567 1625.42 185.1C1627.49 189.567 1630.29 192.767 1633.82 194.7C1637.42 196.567 1641.45 197.5 1645.92 197.5ZM1805.19 212.8C1801.06 215.467 1796.06 217.733 1790.19 219.6C1784.32 221.467 1777.72 222.4 1770.39 222.4C1756.52 222.4 1746.22 218.867 1739.49 211.8C1732.76 204.667 1729.39 195 1729.39 182.8V134.6H1707.09V112.8H1729.39V89.8L1760.99 86V112.8H1795.19L1792.09 134.6H1760.99V182.8C1760.99 188.067 1762.19 191.833 1764.59 194.1C1766.99 196.367 1770.82 197.5 1776.09 197.5C1779.82 197.5 1783.22 197.067 1786.29 196.2C1789.42 195.267 1792.22 194.1 1794.69 192.7L1805.19 212.8ZM1832.26 176.7V152.1H1918.86V176.7H1832.26ZM1981.13 112.8V185.5C1981.13 190.633 1982.06 194.167 1983.93 196.1C1985.86 198.033 1988.53 199 1991.93 199C1995.2 199 1998.46 197.967 2001.73 195.9C2005 193.833 2007.73 191.033 2009.93 187.5V112.8H2041.53V219H2013.93L2012.53 206.6C2008.93 211.8 2004.2 215.733 1998.33 218.4C1992.46 221.067 1986.33 222.4 1979.93 222.4C1969.66 222.4 1962.03 219.433 1957.03 213.5C1952.03 207.5 1949.53 199.467 1949.53 189.4V112.8H1981.13ZM2115.3 57.2C2120.77 57.2 2125.24 58.9 2128.7 62.3C2132.17 65.7 2133.9 69.9333 2133.9 75C2133.9 80.0667 2132.17 84.3333 2128.7 87.8C2125.24 91.2 2120.77 92.9 2115.3 92.9C2109.77 92.9 2105.24 91.2 2101.7 87.8C2098.24 84.3333 2096.5 80.0667 2096.5 75C2096.5 69.9333 2098.24 65.7 2101.7 62.3C2105.24 58.9 2109.77 57.2 2115.3 57.2ZM2134.4 112.8V197.4H2161.4V219H2072.7V197.4H2102.8V134.4H2073.7V112.8H2134.4Z" fill="white"/>
</svg>
